# xmcd
#
# Track frame offsets: 
#        150
#        33387
#        51892
#        74685
#        94685
#        109320
#        130255
#        156200
#        174085
#        191625
#        211820
#        249417
#        286017
#
# Disc length: 4099 seconds
#
# Revision: 0
# Processed by: cddbd v1.5.2PL0 Copyright (c) Steve Scherf et al.
# Submitted via: ExactAudioCopy v1.0b3
#
DISCID=b410010d
DTITLE=Chaka Khan - Dance Classics of Chaka Khan
DYEAR=1999
DGENRE=R&B
TTITLE0=Tearin' It Up (Long Vocal Mix)
TTITLE1=I'm Every Woman
TTITLE2=Pass It On (A Sure Thing)
TTITLE3=Clouds
TTITLE4=Fate
TTITLE5=Eye to Eye
TTITLE6=I Feel for You
TTITLE7=A Woman in a Man's World
TTITLE8=What Cha' Gonna Do for Me
TTITLE9=I Know You, I Live You
TTITLE10=I'm Every Woman
TTITLE11=Tearin' It Up (Instrumental)
TTITLE12=Through the Fire
EXTD=
EXTT0=
EXTT1=
EXTT2=
EXTT3=
EXTT4=
EXTT5=
EXTT6=
EXTT7=
EXTT8=
EXTT9=
EXTT10=
EXTT11=
EXTT12=
PLAYORDER=
